<svg xmlns="http://www.w3.org/2000/svg" width="1080" height="1920" viewBox="0 0 1080 1920">
  <defs>
    <linearGradient id="bg" x1="0" y1="0" x2="1" y2="1">
      <stop offset="0" stop-color="#030819"/>
      <stop offset="0.34" stop-color="#062d7c"/>
      <stop offset="0.68" stop-color="#071e2a"/>
      <stop offset="1" stop-color="#040405"/>
    </linearGradient>
    <radialGradient id="blueGlow" cx="25%" cy="56%" r="70%">
      <stop offset="0" stop-color="#0a7cff" stop-opacity="0.64"/>
      <stop offset="0.44" stop-color="#0756d7" stop-opacity="0.24"/>
      <stop offset="1" stop-color="#002459" stop-opacity="0"/>
    </radialGradient>
    <radialGradient id="orangeGlow" cx="86%" cy="64%" r="50%">
      <stop offset="0" stop-color="#f97316" stop-opacity="0.82"/>
      <stop offset="0.48" stop-color="#f97316" stop-opacity="0.25"/>
      <stop offset="1" stop-color="#f97316" stop-opacity="0"/>
    </radialGradient>
    <linearGradient id="court" x1="0" y1="0" x2="1" y2="1">
      <stop offset="0" stop-color="#063b82"/>
      <stop offset="0.50" stop-color="#0d5b61"/>
      <stop offset="1" stop-color="#612908"/>
    </linearGradient>
    <linearGradient id="lineBlue" x1="0" y1="0" x2="1" y2="0">
      <stop offset="0" stop-color="#4bd5ff" stop-opacity="0"/>
      <stop offset="0.20" stop-color="#4bd5ff"/>
      <stop offset="1" stop-color="#1d66ff" stop-opacity="0"/>
    </linearGradient>
    <linearGradient id="lineOrange" x1="0" y1="0" x2="1" y2="0">
      <stop offset="0" stop-color="#f97316" stop-opacity="0"/>
      <stop offset="0.50" stop-color="#f97316"/>
      <stop offset="1" stop-color="#f97316" stop-opacity="0"/>
    </linearGradient>
    <filter id="softBlur" x="-20%" y="-20%" width="140%" height="140%">
      <feGaussianBlur stdDeviation="18"/>
    </filter>
    <pattern id="dotsBlue" width="18" height="18" patternUnits="userSpaceOnUse">
      <circle cx="2" cy="2" r="1.8" fill="#2ea7ff" opacity="0.82"/>
    </pattern>
    <pattern id="dotsOrange" width="18" height="18" patternUnits="userSpaceOnUse">
      <circle cx="2" cy="2" r="1.8" fill="#f97316" opacity="0.84"/>
    </pattern>
    <pattern id="mesh" width="28" height="28" patternUnits="userSpaceOnUse">
      <path d="M0 0H28M0 0V28" stroke="#061f4e" stroke-width="2" opacity="0.72"/>
    </pattern>
  </defs>

  <rect width="1080" height="1920" fill="url(#bg)"/>
  <rect width="1080" height="1920" fill="url(#blueGlow)"/>
  <rect width="1080" height="1920" fill="url(#orangeGlow)"/>

  <g opacity="0.74" filter="url(#softBlur)">
    <ellipse cx="250" cy="1050" rx="470" ry="520" fill="#0a7cff" opacity="0.18"/>
    <ellipse cx="830" cy="1300" rx="470" ry="520" fill="#f97316" opacity="0.20"/>
  </g>

  <g opacity="0.82">
    <path d="M-60 1070 L1140 1035 L1140 1920 L-60 1920 Z" fill="url(#court)"/>
    <path d="M-10 1310 L520 1920" stroke="#f8fafc" stroke-width="5" opacity="0.68"/>
    <path d="M-50 1190 L1120 1172" stroke="#1d66ff" stroke-width="4" opacity="0.48"/>
    <path d="M-30 1368 L1120 1266" stroke="#f8fafc" stroke-width="3" opacity="0.54"/>
  </g>

  <g opacity="0.76">
    <rect x="-30" y="730" width="240" height="420" fill="url(#mesh)" opacity="0.58"/>
    <rect x="210" y="820" width="890" height="214" fill="url(#mesh)" opacity="0.84"/>
    <rect x="190" y="808" width="920" height="14" fill="#f8fafc"/>
    <rect x="190" y="1032" width="920" height="8" fill="#f8fafc" opacity="0.78"/>
    <rect x="130" y="792" width="30" height="510" rx="5" fill="#041126"/>
    <rect x="1018" y="792" width="30" height="510" rx="5" fill="#041126"/>
    <g fill="#38bdf8">
      <rect x="36" y="585" width="28" height="18" rx="3" transform="rotate(22 36 585)"/>
    </g>
    <g fill="#f97316">
      <rect x="946" y="722" width="32" height="20" rx="3" transform="rotate(-18 946 722)"/>
    </g>
  </g>

  <g opacity="0.90">
    <path d="M-28 232 L250 -90" stroke="url(#lineBlue)" stroke-width="10"/>
    <path d="M-54 294 L360 -184" stroke="url(#lineBlue)" stroke-width="5"/>
    <path d="M-70 354 L420 -246" stroke="#005fff" stroke-width="3" opacity="0.56"/>
    <path d="M790 360 L1165 42" stroke="url(#lineOrange)" stroke-width="6"/>
    <path d="M820 430 L1180 126" stroke="url(#lineOrange)" stroke-width="3" opacity="0.78"/>
  </g>

  <rect x="-70" y="0" width="330" height="430" fill="url(#dotsBlue)" opacity="0.70"/>
  <rect x="810" y="180" width="330" height="470" fill="url(#dotsOrange)" opacity="0.38"/>
  <rect x="-70" y="1548" width="330" height="380" fill="url(#dotsBlue)" opacity="0.70"/>

  <g transform="translate(630 1355) rotate(-18)">
    <ellipse cx="202" cy="84" rx="154" ry="86" fill="none" stroke="#42c3ff" stroke-width="5"/>
    <ellipse cx="202" cy="84" rx="134" ry="68" fill="#06152c" opacity="0.70" stroke="#0f4fab" stroke-width="3"/>
    <g stroke="#e5e7eb" stroke-width="2" opacity="0.78">
      <path d="M82 48 C146 72 246 78 326 116"/>
      <path d="M78 80 C150 96 246 104 326 128"/>
      <path d="M112 20 L292 148"/>
      <path d="M160 12 L328 120"/>
      <path d="M214 10 L348 88"/>
    </g>
    <path d="M314 130 L462 352" stroke="#050b16" stroke-width="54" stroke-linecap="round"/>
    <path d="M314 130 L462 352" stroke="#0f3c86" stroke-width="17" stroke-linecap="round"/>
  </g>

  <g transform="translate(500 1596) rotate(-16)">
    <path d="M0 0 C62 -42 126 -38 176 12 L136 100 C92 72 44 62 -14 72 Z" fill="#f8fafc"/>
    <path d="M0 0 L-55 -105 M24 -10 L-18 -118 M50 -16 L18 -126 M76 -12 L56 -126 M104 -4 L96 -112 M130 10 L136 -88" stroke="#dbeafe" stroke-width="9" stroke-linecap="round"/>
    <ellipse cx="-20" cy="78" rx="34" ry="28" fill="#d8b073"/>
    <path d="M-44 62 C-20 84 6 88 24 72" fill="none" stroke="#6b3f14" stroke-width="5" opacity="0.55"/>
  </g>
</svg>
