<svg xmlns="http://www.w3.org/2000/svg" width="1080" height="1920" viewBox="0 0 1080 1920">
  <defs>
    <linearGradient id="bg" x1="0" y1="0" x2="1" y2="1">
      <stop offset="0" stop-color="#030819"/>
      <stop offset="0.34" stop-color="#062a70"/>
      <stop offset="0.66" stop-color="#110d16"/>
      <stop offset="1" stop-color="#050305"/>
    </linearGradient>
    <radialGradient id="blueGlow" cx="24%" cy="56%" r="70%">
      <stop offset="0" stop-color="#0a7cff" stop-opacity="0.62"/>
      <stop offset="0.45" stop-color="#0756d7" stop-opacity="0.24"/>
      <stop offset="1" stop-color="#002459" stop-opacity="0"/>
    </radialGradient>
    <radialGradient id="orangeGlow" cx="82%" cy="68%" r="52%">
      <stop offset="0" stop-color="#f97316" stop-opacity="0.88"/>
      <stop offset="0.50" stop-color="#f97316" stop-opacity="0.28"/>
      <stop offset="1" stop-color="#f97316" stop-opacity="0"/>
    </radialGradient>
    <linearGradient id="wood" x1="0" y1="0" x2="1" y2="1">
      <stop offset="0" stop-color="#062b6d"/>
      <stop offset="0.45" stop-color="#172347"/>
      <stop offset="1" stop-color="#6b2c08"/>
    </linearGradient>
    <linearGradient id="lineBlue" x1="0" y1="0" x2="1" y2="0">
      <stop offset="0" stop-color="#4bd5ff" stop-opacity="0"/>
      <stop offset="0.20" stop-color="#4bd5ff"/>
      <stop offset="1" stop-color="#1d66ff" stop-opacity="0"/>
    </linearGradient>
    <linearGradient id="lineOrange" x1="0" y1="0" x2="1" y2="0">
      <stop offset="0" stop-color="#f97316" stop-opacity="0"/>
      <stop offset="0.50" stop-color="#f97316"/>
      <stop offset="1" stop-color="#f97316" stop-opacity="0"/>
    </linearGradient>
    <filter id="softBlur" x="-20%" y="-20%" width="140%" height="140%">
      <feGaussianBlur stdDeviation="18"/>
    </filter>
    <pattern id="dotsBlue" width="18" height="18" patternUnits="userSpaceOnUse">
      <circle cx="2" cy="2" r="1.8" fill="#2ea7ff" opacity="0.82"/>
    </pattern>
    <pattern id="dotsOrange" width="18" height="18" patternUnits="userSpaceOnUse">
      <circle cx="2" cy="2" r="1.8" fill="#f97316" opacity="0.84"/>
    </pattern>
    <pattern id="floorLines" width="62" height="120" patternUnits="userSpaceOnUse">
      <path d="M0 0V120" stroke="#1f2937" stroke-width="2" opacity="0.55"/>
      <path d="M4 0V120" stroke="#f97316" stroke-width="1" opacity="0.16"/>
    </pattern>
  </defs>

  <rect width="1080" height="1920" fill="url(#bg)"/>
  <rect width="1080" height="1920" fill="url(#blueGlow)"/>
  <rect width="1080" height="1920" fill="url(#orangeGlow)"/>

  <g opacity="0.74" filter="url(#softBlur)">
    <ellipse cx="250" cy="1110" rx="470" ry="520" fill="#0a7cff" opacity="0.18"/>
    <ellipse cx="835" cy="1340" rx="470" ry="520" fill="#f97316" opacity="0.22"/>
  </g>

  <g opacity="0.82">
    <path d="M-60 1100 L1140 1058 L1140 1920 L-60 1920 Z" fill="url(#wood)"/>
    <path d="M-60 1100 L1140 1058 L1140 1920 L-60 1920 Z" fill="url(#floorLines)" opacity="0.42"/>
    <path d="M-20 1398 C178 1244 406 1210 600 1312 C720 1376 830 1438 1110 1392" fill="none" stroke="#f8fafc" stroke-width="5" opacity="0.78"/>
    <path d="M20 1290 C210 1190 414 1166 610 1238 C760 1294 886 1320 1120 1280" fill="none" stroke="#f97316" stroke-width="4" opacity="0.52"/>
    <path d="M-20 1516 L1070 1390" stroke="#f8fafc" stroke-width="4" opacity="0.62"/>
    <path d="M-40 1278 L1120 1228" stroke="#1d66ff" stroke-width="3" opacity="0.45"/>
  </g>

  <g opacity="0.78">
    <path d="M0 790 C210 650 442 612 626 640 C790 666 930 746 1080 828" fill="none" stroke="#183354" stroke-width="6"/>
    <path d="M0 814 C220 696 450 660 632 690 C792 716 920 786 1080 864" fill="none" stroke="#0b1d2e" stroke-width="5"/>
    <g fill="#38bdf8">
      <circle cx="28" cy="744" r="6"/><circle cx="72" cy="762" r="6"/><circle cx="120" cy="778" r="6"/><circle cx="168" cy="792" r="6"/>
    </g>
    <g fill="#f97316">
      <circle cx="900" cy="782" r="6"/><circle cx="938" cy="766" r="6"/><circle cx="976" cy="748" r="6"/><circle cx="1012" cy="730" r="6"/>
    </g>
    <g transform="translate(640 720)">
      <path d="M0 0 L204 -52 L204 98 L0 140 Z" fill="#06152c" stroke="#60a5fa" stroke-width="4" opacity="0.92"/>
      <rect x="70" y="24" width="74" height="54" fill="none" stroke="#e0f2fe" stroke-width="5"/>
      <rect x="92" y="52" width="54" height="10" fill="#f97316"/>
      <ellipse cx="119" cy="70" rx="34" ry="12" fill="none" stroke="#f97316" stroke-width="5"/>
      <path d="M95 76 C108 112 130 112 144 76" fill="none" stroke="#f8fafc" stroke-width="3" opacity="0.82"/>
      <path d="M205 -52 L260 20 L260 226 L180 238 L180 98 L205 98 Z" fill="#06101f" opacity="0.94"/>
    </g>
  </g>

  <g opacity="0.90">
    <path d="M-28 232 L250 -90" stroke="url(#lineBlue)" stroke-width="10"/>
    <path d="M-54 294 L360 -184" stroke="url(#lineBlue)" stroke-width="5"/>
    <path d="M-70 354 L420 -246" stroke="#005fff" stroke-width="3" opacity="0.56"/>
    <path d="M790 360 L1165 42" stroke="url(#lineOrange)" stroke-width="6"/>
    <path d="M820 430 L1180 126" stroke="url(#lineOrange)" stroke-width="3" opacity="0.78"/>
  </g>

  <rect x="-70" y="0" width="330" height="430" fill="url(#dotsBlue)" opacity="0.70"/>
  <rect x="810" y="180" width="330" height="470" fill="url(#dotsOrange)" opacity="0.38"/>
  <rect x="-70" y="1570" width="330" height="380" fill="url(#dotsBlue)" opacity="0.70"/>

  <g transform="translate(646 1430)">
    <circle cx="180" cy="180" r="168" fill="#c75a0c"/>
    <circle cx="180" cy="180" r="168" fill="#f97316" opacity="0.34"/>
    <path d="M26 180 C102 150 250 150 334 180" fill="none" stroke="#111827" stroke-width="14" opacity="0.88"/>
    <path d="M180 14 C145 98 145 260 180 346" fill="none" stroke="#111827" stroke-width="14" opacity="0.88"/>
    <path d="M74 52 C134 112 218 230 288 306" fill="none" stroke="#111827" stroke-width="12" opacity="0.88"/>
    <path d="M286 52 C226 112 142 230 72 306" fill="none" stroke="#111827" stroke-width="12" opacity="0.88"/>
    <circle cx="180" cy="180" r="168" fill="none" stroke="#fbbf24" stroke-width="4" opacity="0.42"/>
  </g>
</svg>
