<svg xmlns="http://www.w3.org/2000/svg" width="1080" height="1920" viewBox="0 0 1080 1920">
  <defs>
    <linearGradient id="bg" x1="0" y1="0" x2="1" y2="1">
      <stop offset="0" stop-color="#061f46"/>
      <stop offset="0.36" stop-color="#05318a"/>
      <stop offset="0.70" stop-color="#061836"/>
      <stop offset="1" stop-color="#030711"/>
    </linearGradient>
    <radialGradient id="blueGlow" cx="34%" cy="42%" r="66%">
      <stop offset="0" stop-color="#0a7cff" stop-opacity="0.58"/>
      <stop offset="0.45" stop-color="#0756d7" stop-opacity="0.24"/>
      <stop offset="1" stop-color="#002459" stop-opacity="0"/>
    </radialGradient>
    <radialGradient id="sandGlow" cx="82%" cy="72%" r="44%">
      <stop offset="0" stop-color="#f97316" stop-opacity="0.78"/>
      <stop offset="0.46" stop-color="#d66a18" stop-opacity="0.28"/>
      <stop offset="1" stop-color="#f97316" stop-opacity="0"/>
    </radialGradient>
    <linearGradient id="sand" x1="0" y1="0" x2="1" y2="1">
      <stop offset="0" stop-color="#082b6f"/>
      <stop offset="0.38" stop-color="#0c3a8f"/>
      <stop offset="0.72" stop-color="#443148"/>
      <stop offset="1" stop-color="#221019"/>
    </linearGradient>
    <linearGradient id="lineBlue" x1="0" y1="0" x2="1" y2="0">
      <stop offset="0" stop-color="#4bd5ff" stop-opacity="0"/>
      <stop offset="0.2" stop-color="#4bd5ff"/>
      <stop offset="1" stop-color="#1d66ff" stop-opacity="0.1"/>
    </linearGradient>
    <linearGradient id="lineOrange" x1="0" y1="0" x2="1" y2="0">
      <stop offset="0" stop-color="#f97316" stop-opacity="0"/>
      <stop offset="0.5" stop-color="#f97316"/>
      <stop offset="1" stop-color="#f97316" stop-opacity="0"/>
    </linearGradient>
    <filter id="softBlur" x="-20%" y="-20%" width="140%" height="140%">
      <feGaussianBlur stdDeviation="16"/>
    </filter>
    <pattern id="dotsBlue" width="18" height="18" patternUnits="userSpaceOnUse">
      <circle cx="2" cy="2" r="1.8" fill="#2ea7ff" opacity="0.74"/>
    </pattern>
    <pattern id="dotsOrange" width="18" height="18" patternUnits="userSpaceOnUse">
      <circle cx="2" cy="2" r="1.9" fill="#f97316" opacity="0.88"/>
    </pattern>
  </defs>

  <rect width="1080" height="1920" fill="url(#bg)"/>
  <rect width="1080" height="1920" fill="url(#blueGlow)"/>
  <rect width="1080" height="1920" fill="url(#sandGlow)"/>

  <g opacity="0.74" filter="url(#softBlur)">
    <ellipse cx="276" cy="700" rx="450" ry="500" fill="#0a5cff" opacity="0.19"/>
    <ellipse cx="770" cy="1320" rx="430" ry="430" fill="#f97316" opacity="0.16"/>
  </g>

  <g opacity="0.28">
    <path d="M50 805 C72 720 124 680 194 660 C120 746 107 810 120 910 Z" fill="#020817"/>
    <path d="M84 785 C42 706 28 664 32 604 C96 692 128 740 148 850 Z" fill="#020817"/>
    <path d="M102 790 C112 710 150 648 214 602 C174 714 162 786 178 904 Z" fill="#020817"/>
  </g>

  <g opacity="0.72">
    <path d="M-60 1188 L1140 1068 L1140 1920 L-60 1920 Z" fill="url(#sand)"/>
    <path d="M-20 1302 L1090 1186" stroke="#2276ff" stroke-width="4" opacity="0.78"/>
    <path d="M40 1446 L1030 1244" stroke="#42c3ff" stroke-width="3" opacity="0.52"/>
    <path d="M158 1258 L208 1920" stroke="#2b82ff" stroke-width="3" opacity="0.34"/>
    <g opacity="0.25" stroke="#ffffff" stroke-width="2">
      <path d="M-20 1370 C160 1320 284 1358 420 1328 C560 1296 706 1240 1080 1220"/>
      <path d="M-20 1450 C144 1408 274 1442 420 1410 C600 1370 720 1310 1080 1300"/>
      <path d="M-20 1530 C150 1488 300 1522 470 1488 C620 1458 750 1400 1080 1390"/>
      <path d="M-20 1610 C150 1570 310 1608 500 1560 C660 1520 760 1482 1080 1474"/>
    </g>
    <g opacity="0.20" stroke="#f97316" stroke-width="3">
      <path d="M470 1390 C600 1350 780 1340 1080 1330"/>
      <path d="M460 1478 C620 1440 790 1430 1080 1418"/>
      <path d="M430 1570 C610 1530 800 1520 1080 1510"/>
    </g>
  </g>

  <g opacity="0.70">
    <rect x="170" y="838" width="25" height="328" rx="4" fill="#030916"/>
    <rect x="194" y="874" width="934" height="14" fill="#1e7dff"/>
    <rect x="194" y="888" width="934" height="206" fill="#001a3a" opacity="0.83"/>
    <rect x="194" y="1094" width="934" height="10" fill="#1d66ff"/>
    <g stroke="#061f4e" stroke-width="2">
      <path d="M194 914 H1128 M194 944 H1128 M194 974 H1128 M194 1004 H1128 M194 1034 H1128 M194 1064 H1128"/>
      <path d="M222 884 V1104 M250 884 V1104 M278 884 V1104 M306 884 V1104 M334 884 V1104 M362 884 V1104 M390 884 V1104 M418 884 V1104 M446 884 V1104 M474 884 V1104 M502 884 V1104 M530 884 V1104 M558 884 V1104 M586 884 V1104 M614 884 V1104 M642 884 V1104 M670 884 V1104 M698 884 V1104 M726 884 V1104 M754 884 V1104 M782 884 V1104 M810 884 V1104 M838 884 V1104 M866 884 V1104 M894 884 V1104 M922 884 V1104 M950 884 V1104 M978 884 V1104 M1006 884 V1104 M1034 884 V1104 M1062 884 V1104 M1090 884 V1104 M1118 884 V1104"/>
    </g>
    <text x="185" y="1038" transform="rotate(-90 185 1038)" fill="#f97316" font-family="Arial, sans-serif" font-size="31" font-weight="900" letter-spacing="2">BEACH</text>
    <text x="185" y="928" transform="rotate(-90 185 928)" fill="#2b82ff" font-family="Arial, sans-serif" font-size="31" font-weight="900" letter-spacing="2">TENNIS</text>
  </g>

  <g opacity="0.88">
    <path d="M-24 84 L238 -174" stroke="url(#lineBlue)" stroke-width="10"/>
    <path d="M-40 145 L356 -242" stroke="url(#lineBlue)" stroke-width="5"/>
    <path d="M-60 204 L420 -296" stroke="#005fff" stroke-width="3" opacity="0.58"/>
    <path d="M820 560 L1180 194" stroke="url(#lineOrange)" stroke-width="6"/>
    <path d="M790 620 L1180 238" stroke="url(#lineOrange)" stroke-width="3" opacity="0.75"/>
    <path d="M860 688 L1180 372" stroke="#f97316" stroke-width="3" opacity="0.55"/>
  </g>

  <rect x="-70" y="530" width="330" height="430" fill="url(#dotsBlue)" opacity="0.48"/>
  <rect x="800" y="245" width="330" height="470" fill="url(#dotsOrange)" opacity="0.34"/>
  <rect x="-55" y="1655" width="330" height="330" fill="url(#dotsOrange)" opacity="0.72"/>

  <g transform="translate(650 1462) rotate(-24)">
    <ellipse cx="210" cy="92" rx="164" ry="98" fill="#06152c" opacity="0.94" stroke="#42c3ff" stroke-width="4"/>
    <g fill="#030916" opacity="0.86">
      <circle cx="115" cy="68" r="8"/><circle cx="148" cy="54" r="8"/><circle cx="182" cy="46" r="8"/><circle cx="218" cy="46" r="8"/><circle cx="254" cy="54" r="8"/><circle cx="286" cy="72" r="8"/>
      <circle cx="106" cy="100" r="8"/><circle cx="142" cy="88" r="8"/><circle cx="178" cy="82" r="8"/><circle cx="216" cy="82" r="8"/><circle cx="252" cy="90" r="8"/><circle cx="286" cy="106" r="8"/>
      <circle cx="126" cy="130" r="8"/><circle cx="162" cy="122" r="8"/><circle cx="202" cy="120" r="8"/><circle cx="242" cy="128" r="8"/>
    </g>
    <path d="M322 140 L454 330" stroke="#050b16" stroke-width="56" stroke-linecap="round"/>
    <path d="M322 140 L454 330" stroke="#0f3c86" stroke-width="18" stroke-linecap="round"/>
    <path d="M120 28 C190 20 270 40 336 92" fill="none" stroke="#f97316" stroke-width="7" opacity="0.86"/>
    <path d="M96 160 C170 190 268 178 334 118" fill="none" stroke="#1d66ff" stroke-width="7" opacity="0.86"/>
  </g>

  <g transform="translate(590 1714)">
    <circle cx="0" cy="0" r="55" fill="#d8e70c"/>
    <circle cx="-8" cy="-12" r="60" fill="#7ee11d" opacity="0.30" filter="url(#softBlur)"/>
    <path d="M-40 -34 C-6 -10 -2 26 -30 48" fill="none" stroke="#f3ef65" stroke-width="5" opacity="0.78"/>
    <path d="M42 34 C6 12 2 -28 30 -50" fill="none" stroke="#ff8a1c" stroke-width="5" opacity="0.86"/>
  </g>
</svg>
