<svg xmlns="http://www.w3.org/2000/svg" width="1080" height="1920" viewBox="0 0 1080 1920">
  <defs>
    <linearGradient id="bg" x1="0" y1="0" x2="1" y2="1">
      <stop offset="0" stop-color="#030819"/>
      <stop offset="0.34" stop-color="#063188"/>
      <stop offset="0.62" stop-color="#0a1630"/>
      <stop offset="1" stop-color="#160703"/>
    </linearGradient>
    <radialGradient id="blueGlow" cx="22%" cy="55%" r="70%">
      <stop offset="0" stop-color="#0a7cff" stop-opacity="0.64"/>
      <stop offset="0.42" stop-color="#0756d7" stop-opacity="0.24"/>
      <stop offset="1" stop-color="#002459" stop-opacity="0"/>
    </radialGradient>
    <radialGradient id="sunGlow" cx="72%" cy="60%" r="54%">
      <stop offset="0" stop-color="#f97316" stop-opacity="0.88"/>
      <stop offset="0.42" stop-color="#f97316" stop-opacity="0.36"/>
      <stop offset="1" stop-color="#f97316" stop-opacity="0"/>
    </radialGradient>
    <linearGradient id="sand" x1="0" y1="0" x2="1" y2="1">
      <stop offset="0" stop-color="#06357f"/>
      <stop offset="0.38" stop-color="#253762"/>
      <stop offset="0.72" stop-color="#8a3a0d"/>
      <stop offset="1" stop-color="#25100a"/>
    </linearGradient>
    <linearGradient id="lineBlue" x1="0" y1="0" x2="1" y2="0">
      <stop offset="0" stop-color="#4bd5ff" stop-opacity="0"/>
      <stop offset="0.20" stop-color="#4bd5ff"/>
      <stop offset="1" stop-color="#1d66ff" stop-opacity="0"/>
    </linearGradient>
    <linearGradient id="lineOrange" x1="0" y1="0" x2="1" y2="0">
      <stop offset="0" stop-color="#f97316" stop-opacity="0"/>
      <stop offset="0.50" stop-color="#f97316"/>
      <stop offset="1" stop-color="#f97316" stop-opacity="0"/>
    </linearGradient>
    <filter id="softBlur" x="-20%" y="-20%" width="140%" height="140%">
      <feGaussianBlur stdDeviation="18"/>
    </filter>
    <pattern id="dotsBlue" width="18" height="18" patternUnits="userSpaceOnUse">
      <circle cx="2" cy="2" r="1.8" fill="#2ea7ff" opacity="0.82"/>
    </pattern>
    <pattern id="dotsOrange" width="18" height="18" patternUnits="userSpaceOnUse">
      <circle cx="2" cy="2" r="1.8" fill="#f97316" opacity="0.86"/>
    </pattern>
    <pattern id="mesh" width="28" height="28" patternUnits="userSpaceOnUse">
      <path d="M0 0H28M0 0V28" stroke="#061f4e" stroke-width="2" opacity="0.72"/>
    </pattern>
  </defs>

  <rect width="1080" height="1920" fill="url(#bg)"/>
  <rect width="1080" height="1920" fill="url(#blueGlow)"/>
  <rect width="1080" height="1920" fill="url(#sunGlow)"/>

  <g opacity="0.65" filter="url(#softBlur)">
    <ellipse cx="290" cy="1030" rx="470" ry="520" fill="#0a7cff" opacity="0.18"/>
    <ellipse cx="760" cy="1180" rx="500" ry="560" fill="#f97316" opacity="0.22"/>
  </g>

  <g opacity="0.72">
    <path d="M-60 1120 L1140 1040 L1140 1920 L-60 1920 Z" fill="url(#sand)"/>
    <g opacity="0.22" stroke="#f8fafc" stroke-width="2">
      <path d="M-40 1290 C110 1240 240 1270 390 1230 C560 1186 740 1120 1120 1096"/>
      <path d="M-40 1380 C130 1330 260 1365 430 1320 C610 1274 780 1218 1120 1206"/>
      <path d="M-40 1470 C130 1420 280 1450 470 1402 C640 1360 810 1308 1120 1300"/>
      <path d="M-40 1560 C150 1516 300 1548 500 1500 C680 1458 820 1416 1120 1408"/>
    </g>
    <path d="M-20 1376 L610 1920" stroke="#1d66ff" stroke-width="4" opacity="0.42"/>
    <path d="M-20 1232 L1100 1150" stroke="#f97316" stroke-width="4" opacity="0.48"/>
  </g>

  <g opacity="0.78">
    <rect x="100" y="650" width="82" height="520" rx="6" fill="#041026"/>
    <rect x="182" y="742" width="860" height="220" fill="url(#mesh)" opacity="0.90"/>
    <rect x="182" y="730" width="860" height="14" fill="#f97316"/>
    <rect x="182" y="962" width="860" height="8" fill="#f97316"/>
    <text x="144" y="1040" transform="rotate(-90 144 1040)" fill="#f97316" font-family="Arial, sans-serif" font-size="40" font-weight="900" letter-spacing="4">FUTEVÔLEI</text>
    <path d="M80 740 L0 670" stroke="#003da8" stroke-width="4" opacity="0.34"/>
    <path d="M1032 950 L1120 1040" stroke="#f97316" stroke-width="4" opacity="0.34"/>
  </g>

  <g opacity="0.34">
    <path d="M860 780 C906 700 980 672 1040 690 C960 746 940 812 950 910 Z" fill="#020817"/>
    <path d="M902 770 C872 690 870 640 890 590 C932 688 950 750 952 858 Z" fill="#020817"/>
    <path d="M932 764 C956 690 1008 636 1078 606 C1018 714 998 786 1008 900 Z" fill="#020817"/>
  </g>

  <g opacity="0.88">
    <path d="M-28 232 L250 -90" stroke="url(#lineBlue)" stroke-width="10"/>
    <path d="M-54 294 L360 -184" stroke="url(#lineBlue)" stroke-width="5"/>
    <path d="M-70 354 L420 -246" stroke="#005fff" stroke-width="3" opacity="0.56"/>
    <path d="M790 360 L1165 42" stroke="url(#lineOrange)" stroke-width="6"/>
    <path d="M820 430 L1180 126" stroke="url(#lineOrange)" stroke-width="3" opacity="0.78"/>
  </g>

  <rect x="-70" y="0" width="330" height="430" fill="url(#dotsBlue)" opacity="0.70"/>
  <rect x="810" y="180" width="330" height="470" fill="url(#dotsOrange)" opacity="0.40"/>
  <rect x="-70" y="1548" width="330" height="380" fill="url(#dotsBlue)" opacity="0.70"/>

  <g transform="translate(666 1368) rotate(-16)">
    <circle cx="174" cy="174" r="152" fill="#f8fafc"/>
    <circle cx="174" cy="174" r="152" fill="#f97316" opacity="0.20"/>
    <path d="M174 48 L226 86 L206 150 H142 L122 86 Z" fill="#111827"/>
    <path d="M70 126 L122 86 L142 150 L100 188 L44 168 Z" fill="#111827"/>
    <path d="M278 126 L226 86 L206 150 L248 188 L304 168 Z" fill="#111827"/>
    <path d="M96 270 L100 188 L142 150 L174 190 L164 320 Z" fill="#111827"/>
    <path d="M252 270 L248 188 L206 150 L174 190 L184 320 Z" fill="#111827"/>
    <circle cx="174" cy="174" r="152" fill="none" stroke="#fbbf24" stroke-width="4" opacity="0.36"/>
    <path d="M136 190 C160 224 190 222 214 188" fill="none" stroke="#f97316" stroke-width="5" opacity="0.70"/>
  </g>

  <g transform="translate(800 1528) scale(0.9)">
    <circle cx="0" cy="0" r="18" fill="#020817"/>
    <path d="M-50 58 C-22 16 12 10 42 38" stroke="#020817" stroke-width="12" stroke-linecap="round" fill="none"/>
    <path d="M-10 72 L-45 130 M18 78 L58 124" stroke="#020817" stroke-width="12" stroke-linecap="round"/>
    <path d="M16 22 L56 -22" stroke="#020817" stroke-width="10" stroke-linecap="round"/>
  </g>
</svg>
