<svg xmlns="http://www.w3.org/2000/svg" width="1080" height="1920" viewBox="0 0 1080 1920">
  <defs>
    <linearGradient id="bg" x1="0" y1="0" x2="1" y2="1">
      <stop offset="0" stop-color="#030819"/>
      <stop offset="0.34" stop-color="#062d7c"/>
      <stop offset="0.68" stop-color="#11111d"/>
      <stop offset="1" stop-color="#030405"/>
    </linearGradient>
    <radialGradient id="blueGlow" cx="24%" cy="55%" r="70%">
      <stop offset="0" stop-color="#0a7cff" stop-opacity="0.65"/>
      <stop offset="0.44" stop-color="#0756d7" stop-opacity="0.25"/>
      <stop offset="1" stop-color="#002459" stop-opacity="0"/>
    </radialGradient>
    <radialGradient id="orangeGlow" cx="84%" cy="62%" r="50%">
      <stop offset="0" stop-color="#f97316" stop-opacity="0.84"/>
      <stop offset="0.48" stop-color="#f97316" stop-opacity="0.26"/>
      <stop offset="1" stop-color="#f97316" stop-opacity="0"/>
    </radialGradient>
    <linearGradient id="court" x1="0" y1="0" x2="1" y2="1">
      <stop offset="0" stop-color="#06378a"/>
      <stop offset="0.50" stop-color="#092f66"/>
      <stop offset="1" stop-color="#612908"/>
    </linearGradient>
    <linearGradient id="lineBlue" x1="0" y1="0" x2="1" y2="0">
      <stop offset="0" stop-color="#4bd5ff" stop-opacity="0"/>
      <stop offset="0.20" stop-color="#4bd5ff"/>
      <stop offset="1" stop-color="#1d66ff" stop-opacity="0"/>
    </linearGradient>
    <linearGradient id="lineOrange" x1="0" y1="0" x2="1" y2="0">
      <stop offset="0" stop-color="#f97316" stop-opacity="0"/>
      <stop offset="0.50" stop-color="#f97316"/>
      <stop offset="1" stop-color="#f97316" stop-opacity="0"/>
    </linearGradient>
    <filter id="softBlur" x="-20%" y="-20%" width="140%" height="140%">
      <feGaussianBlur stdDeviation="18"/>
    </filter>
    <pattern id="dotsBlue" width="18" height="18" patternUnits="userSpaceOnUse">
      <circle cx="2" cy="2" r="1.8" fill="#2ea7ff" opacity="0.82"/>
    </pattern>
    <pattern id="dotsOrange" width="18" height="18" patternUnits="userSpaceOnUse">
      <circle cx="2" cy="2" r="1.8" fill="#f97316" opacity="0.84"/>
    </pattern>
    <pattern id="mesh" width="27" height="27" patternUnits="userSpaceOnUse">
      <path d="M0 0H27M0 0V27" stroke="#061f4e" stroke-width="2" opacity="0.72"/>
    </pattern>
  </defs>

  <rect width="1080" height="1920" fill="url(#bg)"/>
  <rect width="1080" height="1920" fill="url(#blueGlow)"/>
  <rect width="1080" height="1920" fill="url(#orangeGlow)"/>

  <g opacity="0.74" filter="url(#softBlur)">
    <ellipse cx="250" cy="1010" rx="470" ry="520" fill="#0a7cff" opacity="0.18"/>
    <ellipse cx="830" cy="1260" rx="470" ry="520" fill="#f97316" opacity="0.20"/>
  </g>

  <g opacity="0.82">
    <path d="M-60 1090 L1140 1048 L1140 1920 L-60 1920 Z" fill="url(#court)"/>
    <path d="M-20 1330 L480 1920" stroke="#f8fafc" stroke-width="5" opacity="0.72"/>
    <path d="M-44 1192 L1120 1176" stroke="#1d66ff" stroke-width="4" opacity="0.55"/>
    <path d="M-26 1310 L1120 1260" stroke="#f97316" stroke-width="3" opacity="0.45"/>
  </g>

  <g opacity="0.76">
    <rect x="-40" y="720" width="260" height="420" fill="url(#mesh)" opacity="0.64"/>
    <rect x="220" y="780" width="860" height="230" fill="url(#mesh)" opacity="0.84"/>
    <rect x="190" y="774" width="890" height="15" fill="#f97316"/>
    <rect x="190" y="1004" width="890" height="8" fill="#f97316"/>
    <rect x="185" y="714" width="72" height="410" rx="5" fill="#061126"/>
    <text x="222" y="1035" transform="rotate(-90 222 1035)" fill="#fb923c" font-family="Arial, sans-serif" font-size="34" font-weight="900" letter-spacing="3">PICKLEBALL</text>
    <g fill="#38bdf8">
      <rect x="128" y="565" width="34" height="20" rx="3" transform="rotate(16 128 565)"/>
      <rect x="172" y="578" width="34" height="20" rx="3" transform="rotate(16 172 578)"/>
    </g>
    <g fill="#f97316">
      <rect x="925" y="680" width="34" height="20" rx="3" transform="rotate(-16 925 680)"/>
      <rect x="968" y="666" width="34" height="20" rx="3" transform="rotate(-16 968 666)"/>
    </g>
    <path d="M142 588 L142 884" stroke="#11356f" stroke-width="7"/>
    <path d="M952 690 L952 940" stroke="#4b2308" stroke-width="7"/>
  </g>

  <g opacity="0.90">
    <path d="M-28 232 L250 -90" stroke="url(#lineBlue)" stroke-width="10"/>
    <path d="M-54 294 L360 -184" stroke="url(#lineBlue)" stroke-width="5"/>
    <path d="M-70 354 L420 -246" stroke="#005fff" stroke-width="3" opacity="0.56"/>
    <path d="M790 360 L1165 42" stroke="url(#lineOrange)" stroke-width="6"/>
    <path d="M820 430 L1180 126" stroke="url(#lineOrange)" stroke-width="3" opacity="0.78"/>
  </g>

  <rect x="-70" y="0" width="330" height="430" fill="url(#dotsBlue)" opacity="0.70"/>
  <rect x="810" y="180" width="330" height="470" fill="url(#dotsOrange)" opacity="0.38"/>
  <rect x="-70" y="1548" width="330" height="380" fill="url(#dotsBlue)" opacity="0.70"/>

  <g transform="translate(646 1328) rotate(-18)">
    <rect x="130" y="35" width="286" height="410" rx="72" fill="#07142e" stroke="#38bdf8" stroke-width="5"/>
    <path d="M150 50 C250 116 330 112 400 52" fill="none" stroke="#f97316" stroke-width="6" opacity="0.78"/>
    <path d="M154 406 C238 340 318 330 400 396" fill="none" stroke="#1d66ff" stroke-width="6" opacity="0.82"/>
    <path d="M286 430 L416 620" stroke="#050b16" stroke-width="64" stroke-linecap="round"/>
    <path d="M286 430 L416 620" stroke="#0f3c86" stroke-width="20" stroke-linecap="round"/>
    <g fill="#0b0f14" opacity="0.42">
      <path d="M190 132 C248 112 306 114 362 138 L350 168 C302 150 250 150 202 170 Z"/>
      <path d="M190 232 C248 212 306 214 362 238 L350 268 C302 250 250 250 202 270 Z"/>
    </g>
  </g>

  <g transform="translate(520 1608)">
    <circle cx="0" cy="0" r="58" fill="#d8df55"/>
    <circle cx="-8" cy="-10" r="62" fill="#efff75" opacity="0.28" filter="url(#softBlur)"/>
    <g fill="#6f7717" opacity="0.75">
      <circle cx="-28" cy="-28" r="6"/><circle cx="0" cy="-34" r="6"/><circle cx="28" cy="-24" r="6"/>
      <circle cx="-36" cy="2" r="6"/><circle cx="-8" cy="-2" r="6"/><circle cx="22" cy="4" r="6"/>
      <circle cx="-20" cy="30" r="6"/><circle cx="10" cy="28" r="6"/><circle cx="38" cy="22" r="6"/>
    </g>
    <circle cx="0" cy="0" r="58" fill="none" stroke="#f4f7a0" stroke-width="4" opacity="0.45"/>
  </g>
</svg>
