<svg xmlns="http://www.w3.org/2000/svg" width="1080" height="1920" viewBox="0 0 1080 1920">
  <defs>
    <linearGradient id="bg" x1="0" y1="0" x2="1" y2="1">
      <stop offset="0" stop-color="#030819"/>
      <stop offset="0.35" stop-color="#062d7c"/>
      <stop offset="0.66" stop-color="#08141f"/>
      <stop offset="1" stop-color="#030405"/>
    </linearGradient>
    <radialGradient id="blueGlow" cx="24%" cy="50%" r="70%">
      <stop offset="0" stop-color="#0a7cff" stop-opacity="0.65"/>
      <stop offset="0.45" stop-color="#0756d7" stop-opacity="0.24"/>
      <stop offset="1" stop-color="#002459" stop-opacity="0"/>
    </radialGradient>
    <radialGradient id="orangeGlow" cx="84%" cy="60%" r="50%">
      <stop offset="0" stop-color="#f97316" stop-opacity="0.76"/>
      <stop offset="0.48" stop-color="#f97316" stop-opacity="0.24"/>
      <stop offset="1" stop-color="#f97316" stop-opacity="0"/>
    </radialGradient>
    <linearGradient id="field" x1="0" y1="0" x2="1" y2="1">
      <stop offset="0" stop-color="#04295c"/>
      <stop offset="0.48" stop-color="#0b4f55"/>
      <stop offset="1" stop-color="#613207"/>
    </linearGradient>
    <linearGradient id="lineBlue" x1="0" y1="0" x2="1" y2="0">
      <stop offset="0" stop-color="#4bd5ff" stop-opacity="0"/>
      <stop offset="0.20" stop-color="#4bd5ff"/>
      <stop offset="1" stop-color="#1d66ff" stop-opacity="0"/>
    </linearGradient>
    <linearGradient id="lineOrange" x1="0" y1="0" x2="1" y2="0">
      <stop offset="0" stop-color="#f97316" stop-opacity="0"/>
      <stop offset="0.50" stop-color="#f97316"/>
      <stop offset="1" stop-color="#f97316" stop-opacity="0"/>
    </linearGradient>
    <filter id="softBlur" x="-20%" y="-20%" width="140%" height="140%">
      <feGaussianBlur stdDeviation="18"/>
    </filter>
    <pattern id="dotsBlue" width="18" height="18" patternUnits="userSpaceOnUse">
      <circle cx="2" cy="2" r="1.8" fill="#2ea7ff" opacity="0.82"/>
    </pattern>
    <pattern id="dotsOrange" width="18" height="18" patternUnits="userSpaceOnUse">
      <circle cx="2" cy="2" r="1.8" fill="#f97316" opacity="0.82"/>
    </pattern>
  </defs>

  <rect width="1080" height="1920" fill="url(#bg)"/>
  <rect width="1080" height="1920" fill="url(#blueGlow)"/>
  <rect width="1080" height="1920" fill="url(#orangeGlow)"/>

  <g opacity="0.74" filter="url(#softBlur)">
    <ellipse cx="270" cy="1050" rx="470" ry="520" fill="#0a7cff" opacity="0.18"/>
    <ellipse cx="835" cy="1250" rx="450" ry="520" fill="#f97316" opacity="0.18"/>
  </g>

  <g opacity="0.82">
    <path d="M-60 1080 L1140 1046 L1140 1920 L-60 1920 Z" fill="url(#field)"/>
    <path d="M0 1395 L740 1728" stroke="#f7fbff" stroke-width="5" opacity="0.76"/>
    <path d="M-34 1306 L340 1920" stroke="#1d66ff" stroke-width="7" opacity="0.54"/>
    <path d="M-20 1242 L1110 1186" stroke="#23a8ff" stroke-width="3" opacity="0.45"/>
    <path d="M550 1276 L1120 1224" stroke="#f97316" stroke-width="4" opacity="0.42"/>
  </g>

  <g opacity="0.78">
    <path d="M0 1002 C175 890 365 842 540 844 C720 846 910 895 1080 1000" fill="none" stroke="#274263" stroke-width="6"/>
    <path d="M0 1014 C190 916 365 872 540 874 C720 876 900 918 1080 1018" fill="none" stroke="#0b1d2e" stroke-width="5"/>
    <g fill="#eff6ff">
      <circle cx="38" cy="918" r="7"/><circle cx="64" cy="930" r="7"/><circle cx="92" cy="944" r="7"/><circle cx="122" cy="956" r="7"/>
      <circle cx="880" cy="946" r="7"/><circle cx="910" cy="936" r="7"/><circle cx="940" cy="926" r="7"/><circle cx="970" cy="916" r="7"/>
    </g>
    <g fill="#f97316">
      <circle cx="905" cy="962" r="6"/><circle cx="934" cy="952" r="6"/><circle cx="963" cy="942" r="6"/>
    </g>
    <g fill="#38bdf8">
      <circle cx="70" cy="960" r="6"/><circle cx="98" cy="973" r="6"/><circle cx="126" cy="985" r="6"/>
    </g>
    <rect x="462" y="1038" width="156" height="58" fill="none" stroke="#f8fafc" stroke-width="4" opacity="0.86"/>
    <rect x="454" y="1028" width="172" height="72" fill="none" stroke="#1d66ff" stroke-width="2" opacity="0.72"/>
  </g>

  <g opacity="0.90">
    <path d="M-28 232 L250 -90" stroke="url(#lineBlue)" stroke-width="10"/>
    <path d="M-54 294 L360 -184" stroke="url(#lineBlue)" stroke-width="5"/>
    <path d="M-70 354 L420 -246" stroke="#005fff" stroke-width="3" opacity="0.56"/>
    <path d="M790 360 L1165 42" stroke="url(#lineOrange)" stroke-width="6"/>
    <path d="M820 430 L1180 126" stroke="url(#lineOrange)" stroke-width="3" opacity="0.78"/>
  </g>

  <rect x="-70" y="0" width="330" height="430" fill="url(#dotsBlue)" opacity="0.70"/>
  <rect x="810" y="180" width="330" height="470" fill="url(#dotsOrange)" opacity="0.36"/>
  <rect x="-70" y="1570" width="330" height="380" fill="url(#dotsBlue)" opacity="0.70"/>

  <g transform="translate(720 1450)">
    <circle cx="126" cy="126" r="126" fill="#f8fafc"/>
    <circle cx="126" cy="126" r="126" fill="#f97316" opacity="0.12"/>
    <path d="M126 42 L176 82 L158 142 H94 L76 82 Z" fill="#111827"/>
    <path d="M48 102 L76 82 L94 142 L54 174 L24 146 Z" fill="#111827"/>
    <path d="M204 102 L176 82 L158 142 L198 174 L228 146 Z" fill="#111827"/>
    <path d="M72 224 L54 174 L94 142 L126 178 L118 244 Z" fill="#111827"/>
    <path d="M180 224 L198 174 L158 142 L126 178 L134 244 Z" fill="#111827"/>
    <path d="M76 82 L126 42 L176 82 M94 142 L54 174 M158 142 L198 174 M126 178 L94 142 M126 178 L158 142" stroke="#94a3b8" stroke-width="4" fill="none" opacity="0.55"/>
    <circle cx="126" cy="126" r="126" fill="none" stroke="#dbeafe" stroke-width="4" opacity="0.38"/>
  </g>
</svg>
