<svg xmlns="http://www.w3.org/2000/svg" width="1080" height="1920" viewBox="0 0 1080 1920">
  <defs>
    <linearGradient id="bg" x1="0" y1="0" x2="1" y2="1">
      <stop offset="0" stop-color="#030819"/>
      <stop offset="0.34" stop-color="#062d7c"/>
      <stop offset="0.68" stop-color="#10101d"/>
      <stop offset="1" stop-color="#040405"/>
    </linearGradient>
    <radialGradient id="blueGlow" cx="24%" cy="58%" r="72%">
      <stop offset="0" stop-color="#0a7cff" stop-opacity="0.64"/>
      <stop offset="0.44" stop-color="#0756d7" stop-opacity="0.24"/>
      <stop offset="1" stop-color="#002459" stop-opacity="0"/>
    </radialGradient>
    <radialGradient id="orangeGlow" cx="84%" cy="62%" r="52%">
      <stop offset="0" stop-color="#f97316" stop-opacity="0.84"/>
      <stop offset="0.48" stop-color="#f97316" stop-opacity="0.26"/>
      <stop offset="1" stop-color="#f97316" stop-opacity="0"/>
    </radialGradient>
    <linearGradient id="table" x1="0" y1="0" x2="1" y2="1">
      <stop offset="0" stop-color="#073c91"/>
      <stop offset="0.48" stop-color="#0b3c79"/>
      <stop offset="1" stop-color="#502109"/>
    </linearGradient>
    <linearGradient id="lineBlue" x1="0" y1="0" x2="1" y2="0">
      <stop offset="0" stop-color="#4bd5ff" stop-opacity="0"/>
      <stop offset="0.20" stop-color="#4bd5ff"/>
      <stop offset="1" stop-color="#1d66ff" stop-opacity="0"/>
    </linearGradient>
    <linearGradient id="lineOrange" x1="0" y1="0" x2="1" y2="0">
      <stop offset="0" stop-color="#f97316" stop-opacity="0"/>
      <stop offset="0.50" stop-color="#f97316"/>
      <stop offset="1" stop-color="#f97316" stop-opacity="0"/>
    </linearGradient>
    <filter id="softBlur" x="-20%" y="-20%" width="140%" height="140%">
      <feGaussianBlur stdDeviation="18"/>
    </filter>
    <pattern id="dotsBlue" width="18" height="18" patternUnits="userSpaceOnUse">
      <circle cx="2" cy="2" r="1.8" fill="#2ea7ff" opacity="0.82"/>
    </pattern>
    <pattern id="dotsOrange" width="18" height="18" patternUnits="userSpaceOnUse">
      <circle cx="2" cy="2" r="1.8" fill="#f97316" opacity="0.84"/>
    </pattern>
    <pattern id="mesh" width="26" height="26" patternUnits="userSpaceOnUse">
      <path d="M0 0H26M0 0V26" stroke="#061f4e" stroke-width="2" opacity="0.72"/>
    </pattern>
  </defs>

  <rect width="1080" height="1920" fill="url(#bg)"/>
  <rect width="1080" height="1920" fill="url(#blueGlow)"/>
  <rect width="1080" height="1920" fill="url(#orangeGlow)"/>

  <g opacity="0.72" filter="url(#softBlur)">
    <ellipse cx="260" cy="1040" rx="470" ry="520" fill="#0a7cff" opacity="0.18"/>
    <ellipse cx="830" cy="1240" rx="470" ry="520" fill="#f97316" opacity="0.20"/>
  </g>

  <g opacity="0.84">
    <path d="M-80 1160 L1160 1040 L1160 1920 L-80 1920 Z" fill="url(#table)"/>
    <path d="M-20 1170 L1080 1072" stroke="#f8fafc" stroke-width="5" opacity="0.70"/>
    <path d="M-16 1318 L1100 1248" stroke="#f97316" stroke-width="4" opacity="0.48"/>
    <path d="M22 1278 L380 1920" stroke="#4bd5ff" stroke-width="5" opacity="0.55"/>
    <path d="M560 1112 L560 1920" stroke="#f8fafc" stroke-width="4" opacity="0.36"/>
  </g>

  <g opacity="0.76">
    <rect x="48" y="842" width="984" height="184" fill="url(#mesh)" opacity="0.86"/>
    <rect x="34" y="812" width="1012" height="18" fill="#f8fafc"/>
    <rect x="34" y="1025" width="1012" height="10" fill="#f8fafc" opacity="0.78"/>
    <rect x="28" y="792" width="18" height="268" rx="4" fill="#041126"/>
    <rect x="1034" y="792" width="18" height="268" rx="4" fill="#041126"/>
    <g fill="#38bdf8">
      <rect x="0" y="720" width="78" height="8" rx="4" transform="rotate(26 0 720)"/>
      <rect x="60" y="748" width="78" height="8" rx="4" transform="rotate(24 60 748)"/>
    </g>
    <g fill="#f97316">
      <rect x="905" y="744" width="78" height="8" rx="4" transform="rotate(-12 905 744)"/>
      <rect x="970" y="724" width="78" height="8" rx="4" transform="rotate(-12 970 724)"/>
    </g>
  </g>

  <g opacity="0.90">
    <path d="M-28 232 L250 -90" stroke="url(#lineBlue)" stroke-width="10"/>
    <path d="M-54 294 L360 -184" stroke="url(#lineBlue)" stroke-width="5"/>
    <path d="M-70 354 L420 -246" stroke="#005fff" stroke-width="3" opacity="0.56"/>
    <path d="M790 360 L1165 42" stroke="url(#lineOrange)" stroke-width="6"/>
    <path d="M820 430 L1180 126" stroke="url(#lineOrange)" stroke-width="3" opacity="0.78"/>
  </g>

  <rect x="-70" y="0" width="330" height="430" fill="url(#dotsBlue)" opacity="0.70"/>
  <rect x="810" y="180" width="330" height="470" fill="url(#dotsOrange)" opacity="0.38"/>
  <rect x="-70" y="1548" width="330" height="380" fill="url(#dotsBlue)" opacity="0.70"/>

  <g transform="translate(682 1360) rotate(-14)">
    <ellipse cx="180" cy="110" rx="150" ry="112" fill="#140b08" stroke="#f97316" stroke-width="4"/>
    <ellipse cx="180" cy="110" rx="128" ry="94" fill="#07142e" opacity="0.58"/>
    <path d="M245 190 L374 382" stroke="#061126" stroke-width="62" stroke-linecap="round"/>
    <path d="M245 190 L374 382" stroke="#9a4a16" stroke-width="22" stroke-linecap="round"/>
    <path d="M86 74 C150 104 226 106 286 76" fill="none" stroke="#f97316" stroke-width="6" opacity="0.74"/>
    <path d="M92 142 C154 166 226 166 282 138" fill="none" stroke="#1d66ff" stroke-width="6" opacity="0.78"/>
  </g>

  <g transform="translate(595 1548)">
    <circle cx="0" cy="0" r="42" fill="#f8fafc"/>
    <circle cx="-8" cy="-8" r="42" fill="#f97316" opacity="0.18"/>
    <circle cx="0" cy="0" r="42" fill="none" stroke="#dbeafe" stroke-width="3" opacity="0.48"/>
  </g>
</svg>
