<svg xmlns="http://www.w3.org/2000/svg" width="1080" height="1920" viewBox="0 0 1080 1920">
  <defs>
    <linearGradient id="bg" x1="0" y1="0" x2="1" y2="1">
      <stop offset="0" stop-color="#030819"/>
      <stop offset="0.34" stop-color="#062d7c"/>
      <stop offset="0.68" stop-color="#10101c"/>
      <stop offset="1" stop-color="#03040b"/>
    </linearGradient>
    <radialGradient id="blueGlow" cx="22%" cy="55%" r="70%">
      <stop offset="0" stop-color="#0a7cff" stop-opacity="0.65"/>
      <stop offset="0.44" stop-color="#0756d7" stop-opacity="0.26"/>
      <stop offset="1" stop-color="#002459" stop-opacity="0"/>
    </radialGradient>
    <radialGradient id="orangeGlow" cx="86%" cy="67%" r="48%">
      <stop offset="0" stop-color="#f97316" stop-opacity="0.82"/>
      <stop offset="0.48" stop-color="#f97316" stop-opacity="0.25"/>
      <stop offset="1" stop-color="#f97316" stop-opacity="0"/>
    </radialGradient>
    <linearGradient id="court" x1="0" y1="0" x2="1" y2="1">
      <stop offset="0" stop-color="#073487"/>
      <stop offset="0.48" stop-color="#10285e"/>
      <stop offset="1" stop-color="#5a230a"/>
    </linearGradient>
    <linearGradient id="lineBlue" x1="0" y1="0" x2="1" y2="0">
      <stop offset="0" stop-color="#4bd5ff" stop-opacity="0"/>
      <stop offset="0.20" stop-color="#4bd5ff"/>
      <stop offset="1" stop-color="#1d66ff" stop-opacity="0"/>
    </linearGradient>
    <linearGradient id="lineOrange" x1="0" y1="0" x2="1" y2="0">
      <stop offset="0" stop-color="#f97316" stop-opacity="0"/>
      <stop offset="0.48" stop-color="#f97316"/>
      <stop offset="1" stop-color="#f97316" stop-opacity="0"/>
    </linearGradient>
    <filter id="softBlur" x="-20%" y="-20%" width="140%" height="140%">
      <feGaussianBlur stdDeviation="18"/>
    </filter>
    <pattern id="dotsBlue" width="18" height="18" patternUnits="userSpaceOnUse">
      <circle cx="2" cy="2" r="1.8" fill="#2ea7ff" opacity="0.82"/>
    </pattern>
    <pattern id="dotsOrange" width="18" height="18" patternUnits="userSpaceOnUse">
      <circle cx="2" cy="2" r="1.8" fill="#f97316" opacity="0.84"/>
    </pattern>
  </defs>

  <rect width="1080" height="1920" fill="url(#bg)"/>
  <rect width="1080" height="1920" fill="url(#blueGlow)"/>
  <rect width="1080" height="1920" fill="url(#orangeGlow)"/>

  <g opacity="0.74" filter="url(#softBlur)">
    <ellipse cx="250" cy="1080" rx="450" ry="520" fill="#0a7cff" opacity="0.18"/>
    <ellipse cx="835" cy="1260" rx="430" ry="520" fill="#f97316" opacity="0.20"/>
  </g>

  <g opacity="0.78">
    <path d="M-60 1115 L1140 1068 L1140 1920 L-60 1920 Z" fill="url(#court)"/>
    <path d="M0 1420 L420 1920" stroke="#48c7ff" stroke-width="7" opacity="0.72"/>
    <path d="M-30 1232 L1120 1190" stroke="#1d66ff" stroke-width="4" opacity="0.50"/>
    <path d="M-30 1360 L1120 1288" stroke="#f5f7ff" stroke-width="3" opacity="0.68"/>
    <path d="M450 1518 L1080 1310" stroke="#f97316" stroke-width="4" opacity="0.52"/>
  </g>

  <g opacity="0.78">
    <rect x="142" y="892" width="28" height="486" rx="5" fill="#041026"/>
    <rect x="142" y="885" width="78" height="382" rx="5" fill="#061842" opacity="0.88"/>
    <path d="M170 908 L260 842 L260 1132 L170 1200 Z" fill="#06122a" opacity="0.95"/>
    <rect x="222" y="802" width="924" height="14" fill="#f97316"/>
    <rect x="222" y="816" width="924" height="198" fill="#041126" opacity="0.88"/>
    <rect x="222" y="1015" width="924" height="8" fill="#f97316"/>
    <g stroke="#061f4e" stroke-width="2">
      <path d="M222 840 H1146 M222 868 H1146 M222 896 H1146 M222 924 H1146 M222 952 H1146 M222 980 H1146 M222 1008 H1146"/>
      <path d="M250 812 V1024 M278 812 V1024 M306 812 V1024 M334 812 V1024 M362 812 V1024 M390 812 V1024 M418 812 V1024 M446 812 V1024 M474 812 V1024 M502 812 V1024 M530 812 V1024 M558 812 V1024 M586 812 V1024 M614 812 V1024 M642 812 V1024 M670 812 V1024 M698 812 V1024 M726 812 V1024 M754 812 V1024 M782 812 V1024 M810 812 V1024 M838 812 V1024 M866 812 V1024 M894 812 V1024 M922 812 V1024 M950 812 V1024 M978 812 V1024 M1006 812 V1024 M1034 812 V1024 M1062 812 V1024 M1090 812 V1024 M1118 812 V1024"/>
    </g>
    <path d="M162 790 V1420" stroke="#1d66ff" stroke-width="3" opacity="0.55"/>
    <path d="M165 790 V1420" stroke="#f97316" stroke-width="2" opacity="0.45"/>
    <rect x="160" y="764" width="5" height="110" fill="#ef4444"/>
    <rect x="160" y="818" width="5" height="52" fill="#f8fafc"/>
  </g>

  <g opacity="0.90">
    <path d="M-26 228 L250 -90" stroke="url(#lineBlue)" stroke-width="10"/>
    <path d="M-52 290 L360 -182" stroke="url(#lineBlue)" stroke-width="5"/>
    <path d="M-70 352 L420 -244" stroke="#005fff" stroke-width="3" opacity="0.56"/>
    <path d="M792 360 L1165 42" stroke="url(#lineOrange)" stroke-width="6"/>
    <path d="M820 430 L1180 126" stroke="url(#lineOrange)" stroke-width="3" opacity="0.78"/>
    <path d="M855 504 L1180 230" stroke="#f97316" stroke-width="3" opacity="0.55"/>
  </g>

  <rect x="-70" y="0" width="330" height="430" fill="url(#dotsBlue)" opacity="0.72"/>
  <rect x="810" y="190" width="330" height="470" fill="url(#dotsOrange)" opacity="0.38"/>
  <rect x="-70" y="1548" width="330" height="380" fill="url(#dotsBlue)" opacity="0.70"/>

  <g transform="translate(705 1500) rotate(-14)">
    <circle cx="170" cy="168" r="138" fill="#f59e0b"/>
    <circle cx="170" cy="168" r="138" fill="#f97316" opacity="0.28"/>
    <path d="M58 88 C120 138 208 154 300 130" fill="none" stroke="#07142e" stroke-width="34" opacity="0.90"/>
    <path d="M72 248 C144 200 220 190 300 214" fill="none" stroke="#07142e" stroke-width="34" opacity="0.90"/>
    <path d="M168 30 C142 100 144 220 178 306" fill="none" stroke="#f8fafc" stroke-width="5" opacity="0.45"/>
    <path d="M34 168 C110 150 238 154 306 184" fill="none" stroke="#f8fafc" stroke-width="5" opacity="0.42"/>
    <circle cx="170" cy="168" r="138" fill="none" stroke="#f8fafc" stroke-width="3" opacity="0.30"/>
  </g>
</svg>
